<?xml version="1.0" standalone="no"?><!DOCTYPE svg PUBLIC "-//W3C//DTD SVG 1.1//EN" "http://www.w3.org/Graphics/SVG/1.1/DTD/svg11.dtd"><svg t="1673151589594" class="icon" viewBox="0 0 1024 1024" version="1.1" xmlns="http://www.w3.org/2000/svg" p-id="3532" xmlns:xlink="http://www.w3.org/1999/xlink" width="200" height="200"><path d="M286.757003 629.135814c-7.284917-7.28594-19.095917-7.28594-26.380834 0-7.284917 7.283894-7.284917 19.095917 0 26.37981L509.599324 904.738779c3.64297 3.64297 8.416693 5.464455 13.190417 5.464455s9.54847-1.821485 13.190417-5.464455c7.284917-7.283894 7.284917-19.095917 0-26.37981L286.757003 629.135814z" p-id="3533"></path><path d="M906.884652 481.95266 176.88257 481.95266l359.097588-359.097588c7.284917-7.284917 7.284917-19.095917 0-26.380834-7.28287-7.284917-19.094894-7.284917-26.37981 0L118.65747 487.416092c-7.284917 7.284917-7.284917 19.095917 0 26.380834 3.64297 3.64297 8.416693 5.463432 13.190417 5.463432 1.180895 0 2.361791-0.113587 3.52529-0.335644 1.127683 0.212848 2.286066 0.335644 3.475148 0.335644l768.036327 0c10.301623 0 18.653849-8.351202 18.653849-18.653849S917.187299 481.95266 906.884652 481.95266z" p-id="3534"></path></svg>