<?xml version="1.0" standalone="no"?><!DOCTYPE svg PUBLIC "-//W3C//DTD SVG 1.1//EN" "http://www.w3.org/Graphics/SVG/1.1/DTD/svg11.dtd"><svg t="1673070860167" class="icon" viewBox="0 0 1024 1024" version="1.1" xmlns="http://www.w3.org/2000/svg" p-id="2468" xmlns:xlink="http://www.w3.org/1999/xlink" width="200" height="200"><path d="M845.78048 845.78048c33.8752 81.22112-48.93312 178.05952-133.54496 178.05952-98.33984 0-178.05952-41.4272-178.05952-178.05952 0-48.3904 19.744-91.80928 51.0848-123.86048-35.2064-41.55008-73.98784-84.73856-115.15264-125.90336-57.02144-57.024-117.71008-109.3056-172.40192-153.4208-31.62752 28.9728-73.35808 47.0656-119.64928 47.0656C57.46176 489.66272 0 409.94304 0 311.6032c0-84.61184 78.94912-151.79136 178.05952-133.54496C144.18304 96.83712 226.99136 0 311.6032 0c98.33984 0 178.05952 41.4272 178.05952 178.05952 0 46.30144-18.10176 88.04096-47.08736 119.67104 43.88096 54.41024 95.7696 114.70848 152.48768 171.42656 41.46816 41.4656 85.03936 80.64768 126.88 116.08064 32.0512-31.32672 75.46112-51.06048 123.83744-51.06048 120.59776 0 178.05952 79.71968 178.05952 178.05952C1023.84 796.84736 944.89088 864.02688 845.78048 845.78048zM754.51392 943.37536c0 0-0.10624-0.15744-0.11136-0.1664l1.088-0.81024L754.51392 943.37536z" fill="#385CBC" p-id="2469"></path></svg>