<?xml version="1.0" standalone="no"?><!DOCTYPE svg PUBLIC "-//W3C//DTD SVG 1.1//EN" "http://www.w3.org/Graphics/SVG/1.1/DTD/svg11.dtd"><svg t="1673071358586" class="icon" viewBox="0 0 1024 1024" version="1.1" xmlns="http://www.w3.org/2000/svg" p-id="2878" xmlns:xlink="http://www.w3.org/1999/xlink" width="200" height="200"><path d="M 512 70 C 269.04 70 72.08 266.96 72.08 509.92 c 0 121.49 49.25 231.49 128.88 311.09 c -1.36 -22.24 0.17 -42.42 0.17 -42.42 c 0 -35.28 -12.77 -63.85 -12.77 -63.85 c -3.08 -27.98 -0.4 -56.51 5.09 -83.2 c 118.2 198.57 146.95 66.83 146.95 66.83 c 50.48 -122.06 -86.61 -233.92 -86.61 -233.92 s -5.87 -2.25 -14.95 -4.82 c 16.14 -64.01 56.87 -156.15 159.02 -183.4 c 0 0 46.1 -7.8 89.39 6.49 c 0 0 27.27 -1.3 43.29 -8.66 l 86.36 -61.69 l 27.06 -16.88 s 54.33 -43.94 83.11 13.64 c 0 0 3.68 10.82 -4.33 14.5 c 0 0 11.47 4.33 9.74 42.64 c 0 0 4.76 47.19 -18.18 91.99 c 0 0 -19.05 43.29 -68.18 79 c 3.25 1.51 32.46 7.57 56.49 6.93 c 0 0 27.06 -1.95 30.3 -3.9 c 0 0 30.73 -13.85 33.55 10.17 c 0 0 40.69 9.52 7.57 66.02 l -3.25 8.01 s 11.69 23.38 -44.8 46.32 l -73.37 32.03 s -41.56 14.28 -56.49 75.1 l 1.95 32.03 s 60.29 44.04 68.25 212.02 C 833.15 859.48 951.9 698.56 951.9 509.91 C 951.92 266.96 754.96 70 512 70 Z" fill="#333333" p-id="2879"></path></svg>