<?xml version="1.0" standalone="no"?><!DOCTYPE svg PUBLIC "-//W3C//DTD SVG 1.1//EN" "http://www.w3.org/Graphics/SVG/1.1/DTD/svg11.dtd"><svg t="1672739548120" class="icon" viewBox="0 0 1024 1024" version="1.1" xmlns="http://www.w3.org/2000/svg" p-id="2693" xmlns:xlink="http://www.w3.org/1999/xlink" width="200" height="200"><path d="M982.1 512c0 8.8-3.2 16.5-9.7 23L694.6 812.8c-6.4 6.4-14.1 9.7-23 9.7-8.9 0-16.6-3.2-23-9.7-6.4-6.4-9.7-14.1-9.7-23L638.9 642.7 414.7 642.7c-8.8 0-16.5-3.2-23-9.7s-9.7-14.1-9.7-23L382 414c0-8.8 3.2-16.5 9.7-23 6.4-6.5 14.1-9.7 23-9.7l224.3 0L639 234.2c0-8.8 3.2-16.5 9.7-23 6.4-6.5 14.1-9.7 23-9.7 8.9 0 16.6 3.3 23 9.7L972.4 489C978.8 495.4 982.1 503.1 982.1 512L982.1 512z" p-id="2694" fill="#ffffff"></path><path d="M417 1024 240 1024c-64.1 0-124.4-25-169.7-70.3C25 908.4 0 848.1 0 784L0 240c0-64.1 25-124.4 70.3-169.7C115.6 25 175.9 0 240 0l177 0c53 0 96 43 96 96s-43 96-96 96L240 192c-26.5 0-48 21.5-48 48l0 544c0 26.5 21.5 48 48 48l177 0c53 0 96 43 96 96S470 1024 417 1024z" p-id="2695" fill="#ffffff"></path></svg>