<?xml version="1.0" standalone="no"?><!DOCTYPE svg PUBLIC "-//W3C//DTD SVG 1.1//EN" "http://www.w3.org/Graphics/SVG/1.1/DTD/svg11.dtd"><svg t="1672881530451" class="icon" viewBox="0 0 1024 1024" version="1.1" xmlns="http://www.w3.org/2000/svg" p-id="13880" xmlns:xlink="http://www.w3.org/1999/xlink" width="200" height="200"><path d="M512 1024C229.248 1024 0 794.752 0 512S229.248 0 512 0s512 229.248 512 512-229.248 512-512 512z m42.667-486.87V298.54C554.667 275.328 535.552 256 512 256c-23.723 0-42.667 19.03-42.667 42.539v256.256a41.984 41.984 0 0 0 12.203 29.866L602.795 705.92a42.368 42.368 0 0 0 60.032-0.299 42.667 42.667 0 0 0 0.298-60.032L554.667 537.131z" fill="#818385" p-id="13881"></path></svg>