<?xml version="1.0" standalone="no"?><!DOCTYPE svg PUBLIC "-//W3C//DTD SVG 1.1//EN" "http://www.w3.org/Graphics/SVG/1.1/DTD/svg11.dtd"><svg t="1672937935481" class="icon" viewBox="0 0 1024 1024" version="1.1" xmlns="http://www.w3.org/2000/svg" p-id="2575" xmlns:xlink="http://www.w3.org/1999/xlink" width="200" height="200"><path d="M388.096 79.936a1.248 1.248 0 1 0 159.744 0 1.248 1.248 0 1 0-159.744 0zM970.496 716.096l-230.208 33.152-6.016-43.136 97.6-14.848c25.472-3.904 43.072-27.712 39.168-53.184-3.84-25.472-37.568-63.936-63.04-60.096 0 0-180.352 69.504-242.304 93.12-9.984 3.84-15.872 15.424-12.352 23.296s4.352 9.664 6.912 15.424c2.944 6.528 12.928 20.864 24.832 19.008s89.024-13.568 89.024-13.568l5.952 42.624-77.312 11.136s-14.72 4.928-8 17.6c3.136 6.848 16.96 36.864 23.424 52.608 10.88 26.688 4.8 58.56-22.144 70.656-59.776 26.816-94.016-40.768-136.64-105.728-5.248-8-14.784-12.416-24.256-11.072L299.008 812.8c-12.224 1.792-23.808-5.76-27.2-17.664L164.736 414.592s14.144 2.56 40.192-1.024c19.072-2.56 22.592-9.6 24.064-19.584 3.136-20.8-73.216-186.176-73.216-186.176-3.52-9.728-12.8-16.192-23.168-16.192l-71.808 0.32c-16.32 0-28.032 15.68-23.552 31.36l166.208 574.976c4.16 14.336-5.312 29.056-20.096 31.168L46.336 849.152c-12.032 1.728-21.056 12.032-21.056 24.256l-0.512 125.888C24.704 1012.928 35.712 1024 49.344 1024H973.44c13.568 0 24.576-10.944 24.576-24.512l0.576-259.008c0.064-14.976-13.248-26.496-28.096-24.384z" fill="#ffffff" p-id="2576"></path><path d="M268.992 393.984c6.208 0 211.648-66.944 211.648-66.944 12.16-3.84 24.96 1.28 30.72 12.8L572.8 470.4c5.76 11.52 1.28 25.6-10.24 32l-97.28 55.04c-0.64 0-49.92 23.04-62.72 67.2-1.92 7.04-3.2 14.08-3.2 21.76 0 21.12 8.32 43.52 24.32 67.2 60.16 88.96 113.344 175.424 139.52 182.336 19.84 5.248 43.776-12.992 37.184-37.184-1.472-5.248-48.704-118.912-71.104-168.192-5.76-12.8 0.64-27.52 14.08-32.64 52.48-19.2 170.88-61.44 170.88-61.44 2.56-1.28 47.36-21.12 66.56-69.12 6.4-15.36 8.96-31.36 8.96-48 0-24.96-5.76-51.84-18.56-80.64l-21.76-51.2c-34.56-83.2-59.52-142.72-106.24-168.32l-0.64-0.64c-1.28-0.64-19.2-11.52-51.84-11.52-26.24 0-62.72 7.04-108.16 33.28-99.2 56.96-242.368 128.576-242.368 164.864 0 15.936 12.928 28.8 28.8 28.8z" fill="#ffffff" p-id="2577"></path></svg>