<?xml version="1.0" standalone="no"?><!DOCTYPE svg PUBLIC "-//W3C//DTD SVG 1.1//EN" "http://www.w3.org/Graphics/SVG/1.1/DTD/svg11.dtd"><svg t="1668994241356" class="icon" viewBox="0 0 1024 1024" version="1.1" xmlns="http://www.w3.org/2000/svg" p-id="2982" xmlns:xlink="http://www.w3.org/1999/xlink" width="200" height="200"><path d="M361.813333 567.552c-10.346667-25.557333-17.621333-55.424-22.037333-88.789333-7.104-53.717333-6.421333-111.552-0.981333-166.357334 0.789333-8.021333 1.642667-15.36 2.496-21.866666l19.605333-8.746667 28.949333 6.869333 56.362667 53.76a21.333333 21.333333 0 0 0 28.074667 1.194667l99.861333-80.085333a21.333333 21.333333 0 0 0 4.096-28.928L522.645333 155.733333c-3.84-8.149333-11.562667-17.664-24.32-26.432-21.354667-14.677333-51.84-23.082667-92.565333-23.082666-39.68 0-78.442667 9.045333-114.837333 24.064-21.824 9.024-38.186667 18.133333-47.637334 24.469333a21.333333 21.333333 0 0 0-5.973333 6.08c-1.28 1.92-3.477333 5.44-6.506667 10.517333-4.992 8.341333-10.517333 18.048-16.448 29.077334a1042.709333 1042.709333 0 0 0-49.493333 106.197333c-59.733333 148.906667-87.146667 306.666667-64.085333 463.253333a21.333333 21.333333 0 0 0 8.554666 14.144c172.650667 125.653333 347.136 130.112 503.189334 62.058667a486.464 486.464 0 0 0 57.088-29.376c3.669333-2.218667 6.954667-4.266667 9.813333-6.122667a432.853333 432.853333 0 0 1 58.56 38.784c23.04 18.218667 41.130667 37.077333 52.394667 55.765334a21.333333 21.333333 0 0 0 36.544-21.994667c-14.293333-23.722667-35.733333-46.101333-62.442667-67.242667a474.837333 474.837333 0 0 0-52.693333-35.946666 462.933333 462.933333 0 0 0-24.32-13.397334 21.333333 21.333333 0 0 0-22.208 2.069334c-2.858667 2.133333-8.853333 6.208-17.706667 11.584-15.061333 9.088-32.512 18.218667-52.096 26.773333-141.013333 61.482667-297.002667 58.517333-453.717333-52.224-19.52-145.301333 6.72-292.650667 62.72-432.256a1000.234667 1000.234667 0 0 1 47.445333-101.824 715.221333 715.221333 0 0 1 18.752-32.746667 289.088 289.088 0 0 1 36.565333-18.197333c31.573333-13.056 64.981333-20.842667 98.538667-20.842667 32.533333 0 54.570667 6.08 68.416 15.573334 6.762667 4.650667 9.472 8.32 9.813333 9.258666a21.333333 21.333333 0 0 0 2.538667 4.8l45.290667 64.277334-69.674667 55.850666-47.018667-44.842666a21.333333 21.333333 0 0 0-9.813333-5.333334l-41.6-9.877333a21.333333 21.333333 0 0 0-13.610667 1.28l-36.970666 16.490667a21.333333 21.333333 0 0 0-12.373334 16.042666c-0.277333 1.834667-0.789333 5.12-1.408 9.813334-1.024 7.637333-2.048 16.341333-3.008 25.962666-5.76 57.813333-6.464 118.741333 1.152 176.192 6.336 47.978667 18.218667 90.133333 36.693334 124.864a21.333333 21.333333 0 0 0 31.317333 7.296c82.688-59.562667 145.024-61.76 222.08-0.597333a21.333333 21.333333 0 0 0 24.96 1.130667c59.584-39.125333 122.709333-53.76 183.594667-48.64 23.68 1.984 45.866667 6.997333 64.469333 13.952 14.549333 5.44 25.514667 11.712 28.928 15.317333a21.333333 21.333333 0 0 0 31.04-29.269333c-18.432-19.562667-67.861333-38.058667-120.874667-42.517334-65.685333-5.546667-133.610667 8.917333-197.696 47.402667-81.301333-59.2-155.904-58.965333-240.213333-5.76z" fill="#3D3D3D" p-id="2983"></path></svg>