<svg version="1.2" xmlns="http://www.w3.org/2000/svg" viewBox="0 0 1024 1024" width="1024" height="1024"><style>.a{fill:#3d3d3d}</style><path class="a" d="m662.2 567.6c10.3-25.6 17.6-55.5 22-88.8 7.1-53.8 6.4-111.6 1-166.4-0.8-8-1.6-15.4-2.5-21.9l-19.6-8.7-28.9 6.9-56.4 53.7c-1.9 1.8-4 3.2-6.4 4.2-2.3 1-4.9 1.6-7.4 1.7-2.6 0.1-5.1-0.3-7.6-1-2.4-0.8-4.7-2.1-6.7-3.7l-99.8-80.1c-2.1-1.7-3.9-3.7-5.2-6.1-1.4-2.3-2.2-4.9-2.6-7.5-0.4-2.7-0.3-5.4 0.4-8 0.6-2.6 1.7-5.1 3.3-7.3l55.6-78.9c3.8-8.1 11.5-17.6 24.3-26.4 21.3-14.7 51.8-23.1 92.5-23.1 39.7 0 78.5 9.1 114.9 24.1 21.8 9 38.2 18.1 47.6 24.5q0.9 0.6 1.7 1.2 0.9 0.7 1.6 1.5 0.8 0.8 1.4 1.6 0.7 0.8 1.3 1.7c1.3 2 3.5 5.5 6.5 10.5 5 8.4 10.5 18.1 16.4 29.1q7 12.9 13.5 26 6.6 13.1 12.8 26.4 6.2 13.3 12 26.8 5.8 13.4 11.2 27c59.8 148.9 87.2 306.7 64.1 463.3q-0.3 2.1-1 4.1-0.7 2-1.8 3.8-1.1 1.8-2.6 3.4-1.4 1.6-3.1 2.8c-172.7 125.7-347.2 130.1-503.2 62.1q-7.4-3.2-14.7-6.7-7.2-3.4-14.4-7.1-7.1-3.6-14.1-7.5-7-4-13.9-8.1-5.5-3.3-9.8-6.1-7.7 4.2-15.2 8.8-7.6 4.5-14.9 9.4-7.3 4.8-14.4 10-7.2 5.1-14.1 10.6c-23 18.2-41.1 37-52.4 55.7-3 4.7-7.7 8.1-13.1 9.3-5.4 1.3-11.1 0.4-15.9-2.5-4.7-2.8-8.2-7.4-9.6-12.8-1.4-5.4-0.7-11.1 2.1-16 14.3-23.7 35.7-46.1 62.4-67.2q6.3-4.9 12.7-9.7 6.5-4.7 13.1-9.2 6.6-4.5 13.3-8.7 6.7-4.3 13.6-8.4 3-1.7 6-3.4 3-1.8 6.1-3.4 3-1.7 6.1-3.3 3-1.7 6.1-3.3 2.7-1.3 5.6-1.8 2.9-0.5 5.8-0.2 3 0.2 5.7 1.3 2.8 1.1 5.1 2.8c2.9 2.2 8.9 6.2 17.7 11.6 15.1 9.1 32.6 18.2 52.1 26.8 141.1 61.5 297 58.5 453.8-52.2 19.5-145.3-6.8-292.7-62.8-432.3q-5.2-13.1-10.7-25.9-5.6-12.9-11.6-25.7-5.9-12.7-12.2-25.3-6.3-12.5-12.9-24.9-2.2-4.2-4.5-8.3-2.3-4.1-4.7-8.2-2.3-4.1-4.7-8.2-2.4-4-4.9-8.1-4.4-2.6-8.9-5-4.4-2.4-9-4.7-4.6-2.3-9.2-4.4-4.7-2.1-9.4-4.1c-31.6-13-65-20.8-98.6-20.8-32.5 0-54.5 6.1-68.4 15.6-6.7 4.6-9.4 8.3-9.8 9.2q-0.2 0.7-0.5 1.3-0.3 0.6-0.6 1.2-0.3 0.6-0.7 1.2-0.3 0.6-0.7 1.1l-45.3 64.3 69.7 55.8 47-44.8q1-1 2.1-1.8 1.2-0.8 2.4-1.5 1.3-0.7 2.6-1.2 1.3-0.5 2.7-0.8l41.6-9.9q1.7-0.4 3.4-0.5 1.8-0.2 3.5 0 1.7 0.2 3.4 0.6 1.7 0.5 3.3 1.2l37 16.5q2.4 1 4.5 2.7 2.1 1.6 3.7 3.7 1.6 2.1 2.7 4.6 1 2.4 1.4 5c0.3 1.8 0.8 5.1 1.5 9.8 1 7.7 2 16.4 3 26 5.7 57.8 6.4 118.7-1.2 176.2-6.3 48-18.2 90.1-36.7 124.8-1.4 2.7-3.4 5.1-5.8 6.9-2.4 1.9-5.2 3.2-8.2 3.9-3 0.7-6 0.7-9 0.1-3-0.6-5.8-1.8-8.3-3.6-82.7-59.5-145-61.7-222.1-0.6-1.7 1.4-3.7 2.5-5.8 3.3-2.1 0.8-4.3 1.2-6.5 1.3-2.2 0.1-4.4-0.1-6.6-0.7-2.1-0.6-4.2-1.5-6-2.7-59.6-39.2-122.8-53.8-183.6-48.7-23.7 2-45.9 7-64.5 14-14.6 5.4-25.5 11.7-28.9 15.3-3.9 4-9.3 6.4-14.9 6.5-5.6 0.1-11-2-15.1-5.8-4.1-3.9-6.5-9.2-6.7-14.8-0.2-5.6 1.8-11 5.6-15.2 18.5-19.5 67.9-38 120.9-42.5 65.7-5.5 133.6 8.9 197.7 47.4 81.3-59.2 155.9-59 240.2-5.7z"/></svg>