<?xml version="1.0" standalone="no"?><!DOCTYPE svg PUBLIC "-//W3C//DTD SVG 1.1//EN" "http://www.w3.org/Graphics/SVG/1.1/DTD/svg11.dtd"><svg t="1673187709117" class="icon" viewBox="0 0 1024 1024" version="1.1" xmlns="http://www.w3.org/2000/svg" p-id="1474" xmlns:xlink="http://www.w3.org/1999/xlink" width="200" height="200"><path d="M512 0a512 512 0 0 0-512 512 512 512 0 0 0 512 512 512 512 0 0 0 512-512 512 512 0 0 0-512-512z" fill="#05CFA4" p-id="1475"></path><path d="M541.769143 393.142857a50.322286 50.322286 0 1 1 0-100.571428 50.322286 50.322286 0 0 1 0 100.571428zM369.810286 542.061714c-24.502857 20.333714 67.437714-95.085714 100.352-115.565714 32.914286-20.406857 91.209143-4.973714 83.163428 42.276571-8.045714 47.323429-59.172571 220.013714-70.802285 261.12-11.702857 41.106286 71.68-38.107429 88.137142-48.128 16.457143-9.947429-62.902857 93.184-100.498285 114.907429-37.595429 21.723429-93.769143-7.68-82.651429-47.030857 11.190857-39.424 52.662857-186.514286 69.632-244.882286 16.969143-58.441143-62.902857 16.969143-87.332571 37.302857z" fill="#FFFFFF" p-id="1476"></path></svg>