<?xml version="1.0" standalone="no"?><!DOCTYPE svg PUBLIC "-//W3C//DTD SVG 1.1//EN" "http://www.w3.org/Graphics/SVG/1.1/DTD/svg11.dtd"><svg t="1673187706384" class="icon" viewBox="0 0 1024 1024" version="1.1" xmlns="http://www.w3.org/2000/svg" p-id="1320" xmlns:xlink="http://www.w3.org/1999/xlink" width="200" height="200"><path d="M492.763429 0C220.745143 0 0 218.477714 0 487.643429c0 269.165714 220.745143 487.570286 492.763429 487.570285 272.018286 0 492.763429-218.404571 492.763428-487.570285S764.781714 0 492.763429 0z m-49.298286 682.642286c0-26.916571 21.869714-48.713143 48.786286-48.713143h1.024a48.786286 48.786286 0 0 1 0 97.499428H492.251429a48.786286 48.786286 0 0 1-48.786286-48.786285z m0-195.510857V293.083429a49.298286 49.298286 0 1 1 98.523428 0V487.131429a49.298286 49.298286 0 1 1-98.523428 0z" fill="#FAAD14" p-id="1321"></path></svg>