<?xml version="1.0" standalone="no"?><!DOCTYPE svg PUBLIC "-//W3C//DTD SVG 1.1//EN" "http://www.w3.org/Graphics/SVG/1.1/DTD/svg11.dtd"><svg t="1672741510363" class="icon" viewBox="0 0 1024 1024" version="1.1" xmlns="http://www.w3.org/2000/svg" p-id="14829" xmlns:xlink="http://www.w3.org/1999/xlink" width="200" height="200"><path d="M808 573.1C779.7 710 658.1 813.2 512.9 813.2c-166.2 0-301.4-135.2-301.4-301.4s135.2-301.4 301.4-301.4c80.9 0 158.2 32.9 214.5 89.7L578.8 448.6h345.5V103.1L810.5 216.9c-30.4-30.7-65.5-56.7-103.7-76.6-59.4-31.1-126.5-47.5-193.9-47.5-56.5 0-111.4 11.1-163.1 32.9-49.9 21.1-94.7 51.3-133.2 89.8-38.5 38.5-68.7 83.3-89.8 133.2-21.8 51.7-32.9 106.6-32.9 163.1s11.1 111.4 32.9 163.1c21.1 49.9 51.3 94.7 89.8 133.2 38.5 38.5 83.3 68.7 133.2 89.8 51.7 21.9 106.6 32.9 163.1 32.9s111.4-11.1 163.1-32.9c49.9-21.1 94.7-51.3 133.2-89.8 38.5-38.5 68.7-83.3 89.8-133.2 13.9-32.8 23.4-66.9 28.5-101.8H808z" p-id="14830" fill="#ffffff"></path></svg>