<?xml version="1.0" standalone="no"?><!DOCTYPE svg PUBLIC "-//W3C//DTD SVG 1.1//EN" "http://www.w3.org/Graphics/SVG/1.1/DTD/svg11.dtd"><svg t="1672885136258" class="icon" viewBox="0 0 1024 1024" version="1.1" xmlns="http://www.w3.org/2000/svg" p-id="17689" xmlns:xlink="http://www.w3.org/1999/xlink" width="200" height="200"><path d="M886.977489 289.04209h-52.300651v-32.539742c0-23.034638-18.739279-41.773917-41.779561-41.773917h-87.662573c-23.028993 0-41.768273 18.739279-41.768273 41.773917v188.702282H360.544857V256.507993c0-23.034638-18.744923-41.773917-41.779561-41.773917h-87.656929c-23.034638 0-41.773917 18.739279-41.773917 41.773917v32.539742h-52.30065c-23.034638 0-41.773917 18.739279-41.773917 41.773916v362.351053c0 23.034638 18.739279 41.773917 41.773917 41.773917h52.30065v32.545386c0 23.034638 18.739279 41.773917 41.773917 41.773917h87.656929c23.034638 0 41.779561-18.739279 41.779561-41.773917v-188.702282h302.91593v188.702282c0 23.034638 18.739279 41.773917 41.768273 41.773917h87.662573c23.040282 0 41.779561-18.739279 41.779561-41.773917v-32.545386h52.30065c23.028993 0 41.768273-18.739279 41.768273-41.779561V330.821651c0.005644-23.034638-18.733635-41.779561-41.762628-41.779561z" fill="#3D87F3" p-id="17690"></path><path d="M140.409128 334.202624h48.919678v355.594752h-48.919678zM234.483695 330.821651V764.11668h80.906273V259.88332H234.483695zM360.544857 490.365164h302.91593v43.275317H360.544857zM708.615676 445.210275v318.906405h80.906273V259.88332h-80.906273zM834.676838 334.196979h48.914034v355.594753h-48.914034z" fill="#3D87F3" p-id="17691"></path></svg>